<svg
   version="1.1"
   id="layer"
   x="0px"
   y="0px"
   viewBox="-153 -46 652 652"
   style="enable-background:new -153 -46 652 652;"
   xmlns="http://www.w3.org/2000/svg"
   ><defs
   id="defs4" />
   <style
      type="text/css"
      id="style1">
      .st0{fill:#005288;}
      .st1{fill:#C41230;}
      .st2{fill:#0078AE;}
      .st3{fill:#5E9732;}
   </style>
<circle
   style="fill:#ffffff;fill-opacity:1;stroke:#000000;stroke-width:0;stroke-dasharray:none;stroke-opacity:1"
   id="path5"
   cx="172"
   cy="279"
   r="245" /><path
   class="st0"
   d="M173.7,515.1C44,515.1-61.5,409.6-61.5,279.9C-61.5,150.2,44,44.7,173.7,44.7c129.7,0,235.2,105.5,235.2,235.2  C408.9,409.6,303.4,515.1,173.7,515.1 M173.7,29.9c-137.9,0-250,112.1-250,250s112.1,250,250,250c137.9,0,250-112.1,250-250  S311.6,29.9,173.7,29.9 M327.7,268.3V224c0,0-46.4-12-103.9-12c-1.2,0-2.4,0-3.6,0c-25.8,0.2-57.4,4.1-79.6,7.4  c8.3,8.3,13.4,19.7,13.4,32.3c0,12.7-5.2,24.7-14.5,33.4v1.4h179.3c-2.6,23.8-10.2,46.5-22,66.6v-4.8h-14.6v-7.4H274v-8.6l-1.8,0  l-3.2,0v-5.2c0-0.7-0.2-1.5-0.6-2.1c-0.8-1.2-2-1.8-3.3-1.8c-1.3,0-2.6,0.7-3.3,1.8c-0.4,0.7-0.6,1.4-0.6,2.1v5.2h-4.9v8.6h-6v-28.1  h-37.8v40.6l-11.4-5.6c-3.1-10.5-6.2-20.9-9.2-31.3c0.9-0.6,1.4-1.6,1.4-2.7c0-1.8-1.5-3.3-3.3-3.3c-1.8,0-3.3,1.5-3.3,3.3  c0,1.1,0.6,2.1,1.4,2.7c-2.8,9.7-5.7,19.5-8.6,29.3l-0.2-0.1l-2.5-1.2v9.8h-4.4l-2-33.5l-0.1-1.7h-13.5l-0.1,1.7l-2,33.5h-10.4  c-4.3-7.2-8.1-14.8-11.3-22.6l-6,6c17.9,41.6,51.4,74.8,93.1,92.4C283.4,403.6,327.7,341.1,327.7,268.3 M134.2,322.8v-40  c8.8-7.4,14.5-18.6,14.5-31c0-12.6-5.8-23.9-14.8-31.3h0c-2.1-1.7-4.4-3.3-6.8-4.6c-5.6-3-12.1-4.7-18.9-4.7  c-14.4,0-27.1,7.5-34.2,18.8l0,0c-0.6,0.9-12.6,21.7-12.6,21.7l-1.5,17.8l28-29.7h6.5c1.2-3.2,4.2-5.4,7.8-5.4c2,0,3.8,0.7,5.3,1.9  c1.1,0.9,2,2.1,2.5,3.5h14.9c1.2-3.2,4.2-5.4,7.7-5.4c4.5,0,8.3,3.7,8.3,8.2c0,2.9-1.5,5.5-3.8,6.9c0.1,0.7,0.1,1.4,0.1,2.1  c0,11.5-6.9,21.9-17.3,26.5v59L134.2,322.8z M132.5,245.3c1.4,0,2.6-1.2,2.6-2.6c0-1.4-1.2-2.6-2.6-2.6c-1.4,0-2.6,1.2-2.6,2.6  C129.9,244.2,131,245.3,132.5,245.3 M102.1,245.3c1.4,0,2.6-1.2,2.6-2.6c0-1.4-1.2-2.6-2.6-2.6c-1.4,0-2.6,1.2-2.6,2.6  C99.5,244.2,100.6,245.3,102.1,245.3 M87.3,307.2c1.4,0,2.6-1.2,2.6-2.6c0-1.4-1.2-2.6-2.6-2.6c-1.4,0-2.6,1.2-2.6,2.6  C84.7,306,85.9,307.2,87.3,307.2 M87.3,338.7c1.4,0,2.6-1.2,2.6-2.6c0-1.4-1.2-2.6-2.6-2.6c-1.4,0-2.6,1.2-2.6,2.6  C84.7,337.5,85.9,338.7,87.3,338.7 M116,273.7c9.2-3.3,15.4-12.1,15.4-21.9c0-0.3,0-0.6,0-0.9c-3.1-0.4-5.6-2.5-6.6-5.4h-14.9  c-0.5,1.4-1.4,2.6-2.5,3.5c-1.4,1.2-3.3,1.9-5.3,1.9c-3.6,0-6.6-2.3-7.8-5.4h-4.1l-8.3,8.7v28.5l-25.7,27.1l-2.2,25.6L80,308.3  c-0.6-1.1-0.9-2.4-0.9-3.7c0-4.6,3.7-8.3,8.3-8.3c4.6,0,8.2,3.7,8.2,8.3c0,4.5-3.7,8.3-8.2,8.3c-1.2,0-2.3-0.2-3.3-0.7l-30.7,32.4  l-2.2,25.6L80,339.8c-0.6-1.1-0.9-2.4-0.9-3.7c0-4.5,3.7-8.3,8.3-8.3c4.6,0,8.2,3.7,8.2,8.3c0,4.5-3.7,8.3-8.2,8.3  c-1.2,0-2.3-0.2-3.3-0.7l-33.6,35.7L47.9,409l66.2-66.1v-68.5L116,273.7z M57.1,300.9l19.2-20.3v-20.3L59,278.6L57.1,300.9z   M88.4,141.6l37.9,20.4l-21.9,22.5l16.2-0.6L107.3,206c0.3,0,0.6,0,0.9,0c10,0,19.3,3.2,26.8,8.7c17.5-2.7,42.4-6,65.9-7.5  c-0.1-0.1-0.1-0.3-0.2-0.4c-0.3-0.7-0.7-1.4-1-2.1c-0.5-1.1-1.1-2.1-1.6-3.2c-0.7-1.4-1.4-2.8-2.1-4.2c-0.8-1.7-1.7-3.3-2.5-5  c-0.9-1.9-1.9-3.8-2.8-5.6c0,0,4.1-5.6,12-8c7.3-2.2,15.4,0,20.1,6.3c1.5,2,2.6,4.3,2.6,6.7c0,0,12.5-18.8,9.5-29.6  c-3-10.8-26.9-9.6-26.9-9.6h-8l-7.2-7.6c-1.9-2-4.6-3.2-7.3-3.2H88.4z M344,279.9c0,94-76.2,170.2-170.3,170.2  c-19.7,0-38.6-3.3-56.2-9.5c0,0,32.9-26.2,46.8-40.3c-9.7-9.2-18.4-19.4-26-30.6c-6-8.8-11.1-18.1-15.4-27.7l-81.6,81.5l2.8-33.2  C18.8,360.6,3.5,322,3.5,279.9c0-94,76.2-170.3,170.2-170.3C267.8,109.6,344,185.9,344,279.9 M192.1,152.7l-5.5,3.1l-3.1,4.2  c-1.7-0.8-6.3-2.7-10.4-4.3c-4.2-1.6-10-3.4-10-3.4c10.8,0.1,13.4,0.2,13.8,0.2h0.1h0h0C177.5,152.5,180.1,152.5,192.1,152.7   M196.3,345.6l0.6,0.3l0.8,0.4l-0.3-1.3L196.3,345.6z M190.1,346.6l6.5-3.7l-6.4-5.1l-6.5,5.1L190.1,346.6z M194.5,334.3l-2.6,2  l3.9,3.1L194.5,334.3z M188.3,350.2l6.1,2.9v-1.5l-4.3-2.5L188.3,350.2z M194.3,349v-2.4l-2,1.2L194.3,349z M186.3,332l3.8,3  l3.7-2.9l-3.7-14.1L186.3,332z M184.3,339.5l4-3.1l-2.6-2L184.3,339.5z M182.2,347.2l3.6,1.8l2-1.1l-5-2.9L182.2,347.2z   M168.2,385.3c3.4,3.5,7,6.9,10.7,10.1v-6.7c0-3.6,2.5-6.5,5.5-6.5c3.1,0,5.5,2.9,5.5,6.5v15.5c1.7,1.2,3.5,2.5,5.2,3.6v-24  c0-3.6,2.5-6.5,5.5-6.5c3.1,0,5.6,2.9,5.6,6.5v30.8c2,1.2,4.1,2.3,6.2,3.3v-44.2C192.8,374.7,178,380.1,168.2,385.3 M187.8,372.8  c7.9-1.5,16.4-2.6,24.7-2.8v1.9c-20.4,1-35.6,6.6-45.6,12c-1.4-1.4-2.7-2.9-4-4.4C169.8,377,178.4,374.6,187.8,372.8 M-30.5,291  l-0.1-6.5c3.5,0,6.3,0.8,8.7,2.6c2.3,1.8,3.6,4.3,3.9,7.5c0.3,3.9-0.9,7-3.6,9.3c-2.7,2.3-6.6,3.6-11.7,4c-5.1,0.4-9.2-0.3-12.3-2.1  c-3.1-1.8-4.7-4.7-5.1-8.7c-0.5-6.6,3.3-10.5,11.4-11.8l1,6.3c-4.7,0.5-6.9,2.2-6.7,5c0.1,1.5,1,2.6,2.6,3.3  c1.6,0.7,4.6,0.9,8.9,0.6c3.9-0.3,6.6-0.9,8-1.8c1.4-0.9,2-2.2,1.9-3.7C-24,292.4-26.2,291.1-30.5,291 M-32.6,276.3l13.4,0.5l0.2-7  l-13.4-0.5l-18-9.5l-0.2,6.8l11.4,5.2l-11.7,4.1l-0.3,7.7L-32.6,276.3z M-31.1,251.5l0.5-3.4c0.2-1.6,0.7-2.7,1.5-3.4  c0.7-0.7,1.9-0.9,3.4-0.7c2.7,0.4,3.9,2.2,3.4,5.4l-0.5,3.4L-31.1,251.5z M-43.7,249.5l0.4-2.7c0.3-1.9,0.9-3.1,1.7-3.5  c0.8-0.5,1.7-0.6,2.7-0.5c1,0.2,1.9,0.6,2.6,1.3c0.7,0.7,0.9,2.2,0.5,4.4l-0.4,2.2L-43.7,249.5z M-18.4,260.3l1.7-10.7  c0.4-2.6,0.5-4.7,0.2-6.2c-0.2-1.5-1-2.8-2.3-4c-1.3-1.2-2.9-1.9-4.9-2.3c-3.9-0.6-6.7,0.8-8.5,4.1c-0.5-3.1-2.6-5-6.1-5.5  c-2-0.3-3.8-0.1-5.2,0.5c-1.5,0.7-2.5,1.6-3.1,2.8c-0.6,1.2-1.1,3.1-1.5,5.6l-1.7,10.7L-18.4,260.3z M-14,234.8l5.3-18.6l-5.5-1.6  l-3.4,11.9l-7.5-2.2l2.6-9.2l-5.2-1.5l-2.6,9.2l-7.1-2l3.4-11.9l-5.2-1.5l-5.3,18.6L-14,234.8z M-28.6,194.5c0.4-1,0.8-1.6,1.3-2  c0.4-0.4,1-0.7,1.8-0.8c0.8-0.1,1.7,0,2.6,0.5c2.8,1.2,3.7,3,2.6,5.6l-1.2,2.8l-8.2-3.5L-28.6,194.5z M-7.8,213.9l2.7-6.4l-11.6-4.9  l1.4-3.2l13.2,1l3-7l-15.1,0c-0.3-3.4-2.3-5.8-6-7.4c-1.6-0.7-3.1-1-4.6-1c-1.5,0-2.8,0.4-3.9,1c-1.1,0.7-2,1.4-2.6,2.3  c-0.6,0.9-1.2,2.2-2,4l-3.9,9.2L-7.8,213.9z M-9.5,161.7c-5-1.3-8.8,0.4-11.6,5.2c-1.5,2.6-2,5.2-1.3,7.7c0.7,2.5,2.2,4.5,4.7,5.9  c1.5,0.8,2.9,1.3,4.5,1.2c1.5,0,2.9-0.4,4.1-1c1.2-0.7,2.8-1.9,4.8-3.5c1.5-1.3,2.7-2,3.5-2.2c0.8-0.1,1.5,0,2.2,0.4  c0.9,0.5,1.4,1.3,1.6,2.2c0.2,1-0.1,2-0.7,3c-1.3,2.3-3.6,3-6.7,2l-1.6,6.2c5.8,1.5,10.2-0.2,13.1-5.2c1.7-3,2.3-5.8,1.7-8.5  s-2.2-4.8-4.8-6.3c-1.5-0.8-2.9-1.3-4.4-1.3c-1.5,0-2.8,0.3-4.1,0.9c-1.2,0.6-2.7,1.7-4.4,3c-1.9,1.5-3.2,2.4-4.1,2.8  c-0.8,0.3-1.6,0.3-2.4-0.2c-0.7-0.4-1.1-1-1.3-1.8c-0.2-0.8,0-1.7,0.5-2.5c1.1-1.9,3-2.5,5.7-1.9L-9.5,161.7 M14.4,170.9L26,155.4  l-4.5-3.4l-7.4,9.9l-6.3-4.7l5.8-7.7l-4.4-3.3l-5.8,7.7l-5.9-4.4l7.4-9.9l-4.4-3.3l-11.6,15.5L14.4,170.9z M30,134.4  c2.8,3.3,3.3,5.8,1.5,7.7c-1.1,1.1-2.4,1.5-4.1,1.1c-1.6-0.4-3.8-2-6.6-4.7c-3.2-3-5-5.4-5.5-7.1c-0.5-1.7-0.2-3,0.8-4.1  c1.9-2,4.6-1.4,8.2,1.7l4.1-4.9c-6.3-5.3-11.8-5.5-16.4-0.7c-2.8,2.9-3.8,6.1-3.1,9.6c0.7,3.5,2.9,7,6.6,10.6  c3.7,3.5,7.3,5.6,10.8,6.1c3.5,0.5,6.6-0.6,9.3-3.4c2.2-2.3,3.2-4.9,3-7.9c-0.2-2.9-1.5-5.6-3.8-8.2L30,134.4 M36.6,125.1  c2.6,3.3,4.7,5.4,6.3,6.3c1.6,0.9,3.3,1.2,5.1,0.9c1.8-0.3,3.8-1.3,6-3c2.3-1.8,3.7-3.8,4.3-5.8c0.5-2,0.4-3.9-0.4-5.5  c-0.8-1.6-2.3-3.8-4.5-6.6l-11.2-14l-4.6,3.6L49,115.2c1.6,2,2.6,3.4,3.1,4.3c0.5,0.8,0.6,1.7,0.4,2.6c-0.2,0.9-0.7,1.7-1.6,2.4  c-0.8,0.7-1.7,1-2.6,1.1c-0.9,0.1-1.8-0.2-2.6-0.9c-0.8-0.6-2-2-3.6-4l-11.3-14.2l-5.5,4.4L36.6,125.1z M60.8,91.6  c0.9-0.5,1.6-0.8,2.2-0.9c0.6-0.1,1.2,0.1,1.9,0.5c0.7,0.4,1.3,1,1.9,1.9c1.6,2.6,1.2,4.6-1.2,6l-2.6,1.6L58.4,93L60.8,91.6z   M66.1,119.5l6-3.6l-6.5-10.8l3-1.8l10.1,8.6l6.5-3.9l-12.2-8.9c1.7-2.9,1.6-6.1-0.5-9.5c-0.9-1.5-1.9-2.6-3.1-3.5  c-1.2-0.9-2.5-1.4-3.8-1.5c-1.3-0.1-2.5,0-3.4,0.4c-1,0.4-2.3,1.1-4,2.1l-8.6,5.1L66.1,119.5z M88.1,107l6.3-3L80.8,75.3l-6.3,3  L88.1,107z M86.8,78.9l5.9-2.3l9.2,24.2l6.5-2.5l-9.2-24.2l6.1-2.3l-2.1-5.6l-18.5,7L86.8,78.9z M118.8,80.9l3.3,13l6.8-1.7l-3.3-13  l4-20l-6.6,1.7l-1.8,12.4L114,63.2l-7.5,1.9L118.8,80.9z M156.7,67c-1.5-1.8-2.3-3.3-2.4-4.4c-0.1-0.7,0.1-1.3,0.5-1.8  c0.4-0.5,1-0.8,1.8-0.8c0.8-0.1,1.5,0.1,1.9,0.6c0.5,0.5,0.7,1.1,0.8,1.8C159.4,64.3,158.6,65.8,156.7,67 M160.8,80.8  c-1.2,1.3-2.6,2.1-4.3,2.2c-1.4,0.1-2.6-0.2-3.4-1c-0.9-0.8-1.3-1.9-1.4-3.2c-0.2-2.1,0.8-3.9,2.8-5.3L160.8,80.8z M166.5,68.8  c-0.4,3.1-1.1,5.4-1.9,7.2l-4.8-5.5c3.5-2.2,5.1-4.8,4.9-8c-0.2-2.1-1-3.9-2.6-5.2c-1.6-1.3-3.6-1.9-6.1-1.7c-2.5,0.2-4.4,1-5.9,2.6  c-1.5,1.5-2.1,3.2-2,5.1c0.2,2,1.3,4.3,3.5,6.9c-4.6,2.4-6.8,5.6-6.5,9.7c0.2,2.5,1.2,4.6,2.9,6.4c1.8,1.8,4.4,2.5,7.9,2.2  c3.2-0.2,6-1.5,8.4-3.8c2.1,1.9,4.2,2.7,6.4,2.5c0.7-0.1,1.5-0.2,2.4-0.5l-0.4-5.4c-0.6,0.1-0.9,0.1-1.1,0.1  c-1.1,0.1-2.2-0.4-3.4-1.5c1.8-3.2,3-6.7,3.5-10.5L166.5,68.8 M185.1,87.3l7,0.5l2.4-31.7l-7-0.5L185.1,87.3z M197,88.1l5.3,0.9  l4-22.7l5.5,24.4l6.2,1.1l5.5-31.3l-5.3-0.9L214.8,79l-4.6-20.9l-7.6-1.4L197,88.1z M222.7,93.1l6.7,2l3.7-12l8.8,2.7l1.6-5.2  l-8.8-2.7l2.4-8l11.4,3.5l1.6-5.2l-18.1-5.5L222.7,93.1z M261.6,78.7c1,0.4,1.6,0.8,2,1.3c0.4,0.4,0.6,1,0.7,1.8  c0.1,0.8-0.1,1.7-0.5,2.6c-1.2,2.8-3.1,3.7-5.6,2.6l-2.8-1.2l3.6-8.2L261.6,78.7z M241.9,99.2l6.4,2.8l5.1-11.5l3.2,1.4l-1.2,13.2  l7,3.1l0.2-15.1c3.4-0.3,5.9-2.2,7.5-5.9c0.7-1.6,1-3.1,1-4.6c0-1.5-0.3-2.8-1-3.9c-0.7-1.1-1.4-2-2.3-2.6c-0.9-0.6-2.2-1.3-4-2  l-9.2-4L241.9,99.2z M278.6,103.9l9.5-9.4l-4.2,12.8L278.6,103.9z M264.4,109.1l5.5,3.4l4.8-4.8l7.6,4.7l-2.1,6.4l6.1,3.8l9.1-31.8  l-6-3.7L264.4,109.1z M318.2,116.8c2-4.7,0.9-8.8-3.4-12.3c-2.4-1.9-4.8-2.7-7.4-2.5c-2.6,0.3-4.8,1.5-6.6,3.7  c-1.1,1.3-1.7,2.7-1.9,4.2c-0.2,1.5-0.1,2.9,0.4,4.2c0.5,1.3,1.4,3.1,2.8,5.3c1,1.7,1.6,3,1.6,3.8c0,0.8-0.2,1.5-0.7,2.1  c-0.6,0.8-1.5,1.2-2.4,1.2c-1,0-1.9-0.4-2.9-1.1c-2.1-1.7-2.4-4-1-6.9l-5.8-2.5c-2.4,5.5-1.4,10.1,3.1,13.7c2.7,2.2,5.4,3.1,8.2,2.9  c2.8-0.2,5.1-1.5,7-3.8c1.1-1.3,1.7-2.7,2-4.2s0.1-2.8-0.3-4.2c-0.4-1.3-1.2-2.9-2.3-4.8c-1.2-2.1-1.9-3.6-2.1-4.4  c-0.2-0.9,0-1.6,0.5-2.3c0.5-0.6,1.1-0.9,2-1c0.8-0.1,1.6,0.2,2.4,0.8c1.7,1.4,2.1,3.3,1,5.9L318.2,116.8 M322.1,119l4.5,4.5  l-18.4,18.2l4.9,5l18.4-18.2l4.6,4.6l4.2-4.2l-14-14.1L322.1,119z M345.7,143.6c0.6,0.8,1,1.5,1.2,2.1c0.1,0.6,0.1,1.2-0.2,2  c-0.3,0.7-0.8,1.4-1.7,2.1c-2.4,1.9-4.4,1.8-6.1-0.4l-1.9-2.4l7-5.5L345.7,143.6z M318.8,152.4l4.3,5.5l9.9-7.8l2.2,2.7l-7.2,11.1  l4.7,6l7.3-13.2c3.1,1.3,6.2,0.8,9.4-1.7c1.3-1.1,2.3-2.2,3-3.5c0.7-1.3,1-2.6,1-3.9c0-1.3-0.3-2.4-0.8-3.4  c-0.5-0.9-1.4-2.1-2.6-3.7l-6.2-7.8L318.8,152.4z M345.6,165c-3.6,2.2-6,4-7.1,5.4c-1.1,1.4-1.6,3.1-1.6,4.9c0,1.8,0.7,3.9,2.2,6.3  c1.5,2.5,3.2,4.2,5.2,5c1.9,0.8,3.8,0.9,5.5,0.4c1.7-0.6,4.1-1.7,7.2-3.6l15.4-9.2l-3-5l-15.6,9.3c-2.2,1.3-3.8,2.2-4.7,2.5  c-0.9,0.3-1.8,0.4-2.6,0.1s-1.6-0.9-2.2-1.9c-0.6-0.9-0.8-1.8-0.7-2.7c0.1-0.9,0.5-1.7,1.2-2.4c0.7-0.7,2.2-1.7,4.4-3l15.6-9.3  l-3.6-6L345.6,165z M363.9,204.7c-4.1,1.3-6.6,0.7-7.6-1.6c-0.6-1.5-0.4-2.8,0.6-4.1c1-1.3,3.4-2.7,7-4.3c4-1.7,6.9-2.5,8.7-2.3  c1.7,0.2,2.9,1,3.5,2.3c1.1,2.6-0.5,4.8-4.8,6.8l2.9,5.7c7.3-3.8,9.7-8.7,7.1-14.8c-1.6-3.7-4.1-5.9-7.6-6.6  c-3.5-0.7-7.6-0.1-12.3,1.9c-4.7,2-8,4.5-9.8,7.5c-1.9,3-2,6.3-0.5,9.9c1.3,3,3.3,4.9,6,5.9c2.8,0.9,5.8,0.9,9-0.3L363.9,204.7   M380.3,207.4l1.8,6.1l-24.8,7.4l2,6.7l24.8-7.4l1.9,6.2l5.7-1.7l-5.7-19L380.3,207.4z M375.1,232.9c-4.2,0.7-7,1.6-8.5,2.5  c-1.5,0.9-2.6,2.3-3.2,4c-0.6,1.7-0.7,3.9-0.2,6.7c0.5,2.9,1.5,5.1,3.1,6.5c1.5,1.4,3.2,2.2,5,2.3c1.8,0.1,4.5-0.2,8-0.8l17.6-3.1  l-1-5.8l-17.9,3.2c-2.5,0.5-4.3,0.7-5.2,0.7c-1,0-1.8-0.3-2.5-0.8c-0.7-0.6-1.1-1.4-1.3-2.6c-0.2-1.1-0.1-2,0.3-2.8  c0.4-0.8,1.1-1.4,2-1.8c1-0.4,2.7-0.8,5.2-1.3l17.9-3.2l-1.2-6.9L375.1,232.9z M392.9,270.2c0,1,0,1.8-0.3,2.4  c-0.2,0.5-0.7,1-1.3,1.5c-0.7,0.4-1.5,0.7-2.6,0.7c-3.1,0.1-4.6-1.2-4.8-3.9l-0.1-3.1l8.9-0.4L392.9,270.2z M365.9,261.6l0.3,7  l12.6-0.5l0.1,3.5l-12.4,4.8l0.3,7.6l13.7-6.4c1.7,2.9,4.6,4.3,8.6,4.1c1.7-0.1,3.2-0.4,4.5-1.1c1.3-0.7,2.4-1.5,3.1-2.6  c0.7-1.1,1.2-2.2,1.3-3.2c0.1-1,0.2-2.5,0.1-4.5l-0.4-10L365.9,261.6z M366.6,286.6l-1.5,19.3l5.7,0.4l1-12.3l7.8,0.6l-0.7,9.6  l5.4,0.4l0.7-9.6l7.4,0.6l-1,12.3l5.4,0.4l1.5-19.3L366.6,286.6z M36.9,427.3c2.6-4.4,2-8.6-1.9-12.6c-2.1-2.2-4.5-3.3-7-3.3  c-2.6,0-4.9,0.9-6.9,2.9c-1.2,1.2-2,2.5-2.4,4c-0.4,1.5-0.4,2.9-0.1,4.2c0.3,1.3,1,3.2,2.1,5.5c0.8,1.8,1.2,3.1,1.1,4  c-0.1,0.8-0.4,1.5-0.9,2c-0.7,0.7-1.6,1-2.6,0.9c-1-0.1-1.9-0.6-2.7-1.5c-1.8-1.9-1.9-4.2-0.1-7l-5.5-3.2c-3.1,5.2-2.6,9.9,1.4,14  c2.4,2.5,5,3.8,7.8,3.9c2.8,0.1,5.2-0.8,7.4-2.9c1.2-1.2,2-2.5,2.4-3.9c0.4-1.4,0.5-2.8,0.2-4.2c-0.3-1.4-0.9-3-1.7-5  c-0.9-2.2-1.5-3.8-1.6-4.6c-0.1-0.9,0.2-1.6,0.8-2.3c0.6-0.5,1.2-0.8,2.1-0.8c0.8,0,1.6,0.4,2.3,1.1c1.5,1.6,1.6,3.6,0.3,6  L36.9,427.3 M25.3,450.2l15,12.1l3.6-4.4l-9.6-7.8l4.9-6.1l7.4,6l3.4-4.2l-7.4-6l4.6-5.7l9.6,7.8l3.4-4.2l-15-12.1L25.3,450.2z   M65.3,464.7c-2.6,3.4-5,4.4-7.2,3c-1.3-0.8-2-2.1-1.9-3.7c0.1-1.7,1.2-4.1,3.3-7.5c2.3-3.7,4.2-6,5.8-6.8c1.5-0.8,2.9-0.9,4.2-0.1  c2.4,1.5,2.4,4.2,0,8.3l5.6,3c3.8-7.3,2.9-12.6-2.7-16.1c-3.4-2.1-6.7-2.5-10-1.1c-3.3,1.4-6.2,4.3-9,8.6c-2.7,4.3-3.9,8.2-3.7,11.8  c0.2,3.5,2,6.3,5.3,8.4c2.7,1.7,5.5,2.1,8.3,1.3c2.8-0.8,5.2-2.6,7.2-5.4L65.3,464.7 M77.4,469.2c-1.7,3.8-2.6,6.7-2.7,8.5  c-0.1,1.8,0.4,3.4,1.5,4.9c1.1,1.5,2.9,2.8,5.4,3.9c2.7,1.2,5.1,1.6,7.1,1.1c2-0.5,3.6-1.4,4.7-2.8c1.1-1.4,2.4-3.8,3.8-7l7.3-16.3  l-5.3-2.4l-7.4,16.6c-1.1,2.3-1.8,3.9-2.4,4.7c-0.5,0.8-1.2,1.3-2.1,1.6c-0.9,0.2-1.8,0.1-2.9-0.3c-1-0.4-1.7-1-2.2-1.8  c-0.5-0.8-0.6-1.7-0.4-2.7c0.2-1,0.8-2.7,1.9-5l7.4-16.6l-6.4-2.8L77.4,469.2z M117.7,471c1,0.3,1.7,0.6,2.2,1c0.4,0.4,0.8,1,1,1.7  c0.2,0.8,0.1,1.6-0.1,2.7c-0.9,2.9-2.6,4-5.2,3.3l-2.9-0.9l2.5-8.5L117.7,471z M100.9,493.8l6.7,2l3.5-12.1l3.3,1l0.6,13.2l7.3,2.1  l-1.7-15c3.3-0.7,5.5-3,6.6-6.8c0.5-1.6,0.6-3.2,0.4-4.6c-0.2-1.5-0.7-2.7-1.5-3.8c-0.8-1.1-1.7-1.8-2.6-2.3c-0.9-0.5-2.3-1-4.2-1.5  l-9.6-2.8L100.9,493.8z M128.7,501.1l6.9,1.3l5.8-31.2l-6.9-1.3L128.7,501.1z M143,477.7l6.3,0.7l-2.7,25.6l6.9,0.7l2.7-25.6  l6.5,0.7l0.6-5.9l-19.7-2.1L143,477.7z M171.9,492.2l0.1,13.4l7-0.1l-0.1-13.4l8.6-18.4l-6.8,0.1l-4.7,11.6l-4.6-11.5l-7.7,0.1  L171.9,492.2z M206.2,491.2l0.8-13.3l5.4,12.3L206.2,491.2z M199.1,504.6l6.3-1.1l0.4-6.7l8.8-1.5l2.7,6.2l7-1.2L210,470.5l-6.9,1.2  L199.1,504.6z M237.4,484.5l4.5-1.4c1.2,4,0.5,6.4-2.2,7.3c-1.7,0.5-3.2,0.2-4.5-1c-1.3-1.2-2.6-3.6-3.7-7.3c-1.3-4.1-1.7-7-1.2-8.7  c0.4-1.7,1.4-2.8,2.9-3.3c2.5-0.8,4.5,0.8,6.2,4.6l5.7-2.8c-2.9-6.7-7.4-9.1-13.7-7.2c-3.9,1.2-6.4,3.6-7.5,7.1  c-1.1,3.5-0.9,7.8,0.7,12.8c1.4,4.6,3.6,7.9,6.4,10c2.9,2.1,6,2.6,9.5,1.5c3.3-1,5.3-3.1,6.1-6.2l1.9,3.2l2.8-0.9l-5-16.2l-10.5,3.3  L237.4,484.5z M259.8,488.8l17.6-8l-2.4-5.2l-11.2,5.1l-3.2-7.1l8.7-4l-2.3-5l-8.7,4l-3.1-6.7l11.2-5.1l-2.3-5l-17.6,8L259.8,488.8z   M283.4,477.5l4.6-2.8l-12.1-19.5l20.3,14.4l5.3-3.3l-16.7-27l-4.6,2.8l10.4,16.8l-17.3-12.5l-6.6,4.1L283.4,477.5z M313.8,442  c2.3,3.6,2.5,6.2,0.6,7.8c-1.2,1-2.6,1.2-4.1,0.6c-1.5-0.6-3.5-2.5-6-5.5c-2.8-3.4-4.3-5.9-4.6-7.7c-0.3-1.7,0.1-3,1.2-4  c2.1-1.8,4.8-0.9,7.9,2.7l4.6-4.4c-5.7-6-11-6.8-16.2-2.6c-3.1,2.5-4.5,5.6-4.2,9.1c0.3,3.5,2,7.3,5.3,11.2c3.2,3.9,6.6,6.4,10,7.3  c3.4,0.9,6.6,0.2,9.7-2.3c2.5-2,3.8-4.5,3.9-7.4c0.1-2.9-0.8-5.8-2.8-8.6L313.8,442 M324.3,429.6l9.7,9.3l4.8-5l-9.7-9.3l-7.1-19  l-4.7,4.9l5,11.5l-11.5-4.8l-5.3,5.5L324.3,429.6z"
   id="path1" />
<path
   class="st1"
   d="M173.7,96.5C72.4,96.5-9.7,178.6-9.7,279.9c0,47.7,18.2,91.1,48,123.7l0.5-6.1C10.3,364.9-5.2,323.6-5.2,279.9  c0-47.8,18.6-92.7,52.4-126.6c33.8-33.8,78.7-52.4,126.5-52.4c47.8,0,92.7,18.6,126.5,52.4c33.8,33.8,52.4,78.7,52.4,126.6  c0,47.8-18.6,92.7-52.4,126.5c-33.8,33.8-78.7,52.4-126.5,52.4c-43.5,0-84.6-15.4-117.2-43.7l-3.2,3.1c32.2,28,74.3,45,120.4,45  c101.3,0,183.4-82.1,183.4-183.4C357.1,178.6,275,96.5,173.7,96.5"
   id="path2" />
<path
   class="st2"
   d="M375.5,327.5c-6.2,26.5-17.6,51.1-33,72.6l3.9,2.6c15.6-21.9,27.2-46.9,33.6-73.8L375.5,327.5z M-28.1,327.5  l-4.5,1.4c6.4,26.9,17.9,51.9,33.5,73.8l3.9-2.6C-10.5,378.6-21.8,354-28.1,327.5 M386,330.8c-6.6,27.5-18.4,53-34.3,75.4l3.9,2.6  c16.2-22.7,28.2-48.6,34.9-76.6L386,330.8z M-38.5,330.8l-4.5,1.4c6.7,27.9,18.7,53.8,34.9,76.6l3.9-2.6  C-20.2,383.8-32,358.3-38.5,330.8 M365.5,324.3c-5.9,25.6-16.9,49.2-31.7,69.9l3.9,2.6c15.1-21.1,26.2-45.1,32.3-71.1L365.5,324.3z   M-18,324.3l-4.5,1.4c6.1,26,17.2,50.1,32.3,71.1l3.9-2.6C-1.2,373.6-12.1,349.9-18,324.3 M264.1,255h-7.8l3.9-12.9L264.1,255z   M264.1,255h-7.8l3.9-12.9L264.1,255z M260.3,242.1l3.8,12.9h-7.8L260.3,242.1z M277.6,269.2l-11.5-36.6h-9.9l-11.7,36.6h7.5  l2.3-7.5h11.8l2.3,7.5H277.6z M242.3,257.5c0-2.1-0.6-4-1.8-5.7c-1.2-1.7-2.6-2.9-4.4-3.7c-1.7-0.8-4.5-1.5-8.2-2.3  c-2.2-0.4-3.7-1-4.3-1.6c-0.6-0.6-1-1.3-1-2.2c0-2.2,1.7-3.3,5.1-3.3c3.2,0,5.2,1.5,6.2,4.4l7.3-2.4c-2-5.7-6.7-8.6-13.9-8.6  c-4,0-7.3,1.1-9.6,3.4c-2.4,2.2-3.5,5-3.5,8.2c0,3.2,1,5.7,3,7.3c2,1.7,5.3,3,10,4c2.5,0.5,4.2,1.1,5.1,1.7c0.9,0.6,1.3,1.4,1.3,2.5  c0,1.1-0.5,2-1.4,2.7c-1,0.8-2.4,1.1-4.4,1.1c-4.1,0-6.5-1.7-7.4-5.1l-7.9,1.8c0.8,3.4,2.6,5.9,5.2,7.6c2.6,1.7,5.8,2.6,9.6,2.6  c5,0,8.8-1.2,11.3-3.6C241,263.7,242.3,260.8,242.3,257.5 M207.8,232.6h-8.6v36.6h8.6V232.6z M172.5,251c0-7.9,2.2-11.9,6.7-11.9  c3.9,0,5.9,2.6,6,7.8l9-0.6c-1.1-9.5-6.1-14.2-14.9-14.2c-5.1,0-9.1,1.8-12,5.3c-2.9,3.5-4.4,8-4.4,13.6c0,5.9,1.5,10.5,4.6,13.9  c3,3.4,7,5,11.8,5c3.9,0,7.3-1.1,10-3.4c2.7-2.3,4.4-5.6,4.9-10l-8.3-0.5c-0.8,4.6-2.9,6.9-6.5,6.9c-2.2,0-3.9-0.8-5.1-2.5  C173.1,258.7,172.5,255.6,172.5,251 M319.8,230.2v38c0,3.9-0.1,7.8-0.4,11.6h-175c6.2-8,9.6-17.8,9.6-28.1c0-9.3-2.8-18-7.6-25.2  c21.6-3.1,50.3-6.5,73.9-6.7c1.2,0,2.4,0,3.5,0C267.9,219.9,305.7,227.1,319.8,230.2 M264.1,255h-7.8l3.9-12.9L264.1,255z   M264.1,255h-7.8l3.9-12.9L264.1,255z M282.2,374.3c4.7-5.8,9-11.8,12.9-18.1v-6h-12.9V374.3z M272.2,334.1l-4.9,0v-6.9  c0-0.4-0.1-0.8-0.4-1.2c-0.4-0.6-1-1-1.8-1s-1.4,0.4-1.8,1c-0.2,0.4-0.4,0.8-0.4,1.2v7H258v8.6h-7.7v61.7  c11.2-8.1,21.3-17.5,30.1-28v-33.7h-8.2V334.1z M214.3,418.8c2,1,4,1.9,6,2.8c0.4-0.2,0.8-0.3,1.1-0.5v-91.8c0-0.1,0.1-0.2,0.2-0.2  h1.6c0.1,0,0.2,0.1,0.2,0.2v90.9c2.2-1.1,4.5-2.2,6.6-3.3v-92.1c0-0.1,0.1-0.2,0.2-0.2h1.6c0.1,0,0.2,0.1,0.2,0.2v91.1  c2.2-1.2,4.5-2.5,6.6-3.8v-82.7c0-0.1,0.1-0.2,0.2-0.2h1.6c0.1,0,0.2,0.1,0.2,0.2v81.5c2.7-1.7,5.3-3.4,7.8-5.2v-91h-34.2V418.8z   M200.8,379.1c-2.1,0-3.8,2.1-3.8,4.8V409c2.5,1.6,5,3.2,7.6,4.6v-29.8C204.6,381.2,202.9,379.1,200.8,379.1 M184.5,383.9  c-2.1,0-3.8,2.1-3.8,4.8v8.3c2.5,2.1,5,4,7.5,6v-14.2C188.2,386.1,186.6,383.9,184.5,383.9 M196.1,347.4l16.4,8v12.8  c-18.6,0.6-37.8,5-50.9,9.9c-6-6.9-11.3-14.2-16.1-22h11l2.1-35.1h10.2l2.1,35.1h7.8v-8.7l17.5,8.5V347.4z"
   id="path3" />
<path
   class="st3"
   d="M209.9,352.2l1.3,0.6c0.5-0.3,0.9-0.5,1.4-0.8v-1.3C211.7,351.2,210.8,351.7,209.9,352.2 M172.4,354.4h2.7  c-0.9-0.3-1.8-0.7-2.7-1.1L172.4,354.4z M146.9,313.9c0-10.4,3.7-19.9,9.8-27.3h-1.4c-5.9,7.5-9.5,17-9.5,27.3  c0,10.5,3.7,20.1,9.8,27.7l0.1-1.7C150.2,332.7,146.9,323.7,146.9,313.9 M223.3,286.6c5.9,7.2,9.5,16.3,9.8,26.2h1.1  c-0.2-9.9-3.7-19-9.5-26.2H223.3z M224.2,312.8h1.2c-0.3-10.5-5.3-19.9-12.9-26.2h-1.9C218.6,292.7,223.9,302.1,224.2,312.8   M154.5,313.9c0,4.1,0.7,8,2,11.6l0.2-3.5c-0.6-2.6-1-5.3-1-8.1c0-11.2,5.4-21.1,13.6-27.3h-1.9C159.6,293.1,154.5,303,154.5,313.9   M171.9,344.3c1.6,0.9,3.2,1.8,5,2.5v-1.3c-1.8-0.7-3.4-1.6-5.1-2.6L171.9,344.3z M202.4,345.9c0.1,0.4,0.2,0.8,0.3,1.1  c3.6-1.4,6.9-3.4,9.8-5.8v-1.6C209.5,342.3,206.1,344.4,202.4,345.9 M200.4,339.1c0.1,0.4,0.2,0.8,0.4,1.2c4.7-1.9,8.8-5.1,11.8-9  v-2.1C209.5,333.5,205.3,337,200.4,339.1 M179.4,340.3c0.1-0.4,0.2-0.8,0.4-1.2c-3.2-1.3-6.1-3.2-8.5-5.6l0.1,1.8  C173.7,337.4,176.4,339.1,179.4,340.3 M197.8,286.6h-15.6c-11.9,3.4-20.6,14.4-20.6,27.3c0,1.8,0.2,3.6,0.5,5.3h1.3  c-0.3-1.7-0.5-3.5-0.5-5.3c0-15,12.2-27.2,27.2-27.2c14.6,0,26.6,11.6,27.1,26.1h1.2C217.9,300.4,209.4,289.9,197.8,286.6   M143.3,286.6H142c-0.9,1.6-1.7,3.3-2.5,5v2.8C140.6,291.7,141.8,289.1,143.3,286.6 M236.7,286.6c4.5,7.7,7.2,16.7,7.4,26.2h1.1  c-0.2-9.5-2.8-18.5-7.2-26.2H236.7z M137.6,327.4l-0.9,0.9c2.7,10.1,8.3,19.1,15.8,26.1h1.6C146.1,347.3,140.3,338,137.6,327.4   M253.3,286.6h-1.1c3.7,8.4,5.8,17.6,5.8,27.3c0,9.6-2,18.7-5.6,27h1.1c1.1-2.5,2-5.2,2.8-7.8v-0.8h0.2c1.6-5.9,2.5-12,2.5-18.4  C259,304.2,256.9,295,253.3,286.6 M294.1,286.6h-1c2.3,8.7,3.6,17.9,3.6,27.3c0,12-2,23.6-5.7,34.5h1c3.7-10.8,5.7-22.4,5.7-34.5  C297.6,304.5,296.4,295.3,294.1,286.6 M271.7,286.6h-1c2.9,8.6,4.5,17.8,4.5,27.3c0,6.3-0.7,12.5-2,18.4h0.8v0.7  c1.4-6.2,2.2-12.6,2.2-19.2C276.1,304.4,274.6,295.2,271.7,286.6 M199.5,313.9c0-5.2-4.3-9.5-9.5-9.5c-5.2,0-9.5,4.3-9.5,9.5  c0,3.3,1.7,6.2,4.3,7.9c0.2-0.5,0.3-1,0.5-1.5c-2-1.5-3.2-3.8-3.2-6.4c0-4.4,3.6-8,8-8c4.4,0,8,3.6,8,8c0,2.6-1.2,4.9-3.1,6.3  c0.1,0.5,0.3,1,0.5,1.6C197.8,320.1,199.5,317.2,199.5,313.9 M197.1,313.9c0-4.1-3.2-7.4-7.1-7.4c-3.9,0-7.1,3.3-7.1,7.4  c0,2.3,1,4.3,2.6,5.7c0.2-0.6,0.3-1.1,0.5-1.7c-0.9-1-1.5-2.4-1.5-4c0-3.2,2.5-5.8,5.6-5.8c3.1,0,5.6,2.6,5.6,5.8  c0,1.5-0.6,2.8-1.5,3.9c0.2,0.6,0.3,1.1,0.5,1.7C196.1,318.2,197.1,316.2,197.1,313.9 M201.8,313.9c0-6.5-5.3-11.8-11.8-11.8  c-6.5,0-11.8,5.3-11.8,11.8c0,4.4,2.4,8.2,5.9,10.2c0.1-0.5,0.3-1,0.4-1.5c-2.9-1.8-4.9-5.1-4.9-8.8c0-5.7,4.6-10.4,10.4-10.4  c5.7,0,10.3,4.6,10.3,10.4c0,3.7-1.9,6.9-4.8,8.7c0.1,0.5,0.3,1,0.4,1.5C199.5,322.1,201.8,318.3,201.8,313.9 M204.7,313.9  c0-8.1-6.6-14.7-14.7-14.7c-8.1,0-14.7,6.6-14.7,14.7c0,5.7,3.3,10.6,8,13.1c0.1-0.5,0.3-0.9,0.4-1.4c-4.2-2.3-7-6.6-7-11.7  c0-7.3,6-13.3,13.3-13.3s13.3,6,13.3,13.3c0,5-2.8,9.4-6.9,11.6c0.1,0.5,0.3,0.9,0.4,1.4C201.5,324.5,204.7,319.6,204.7,313.9   M208.3,313.9c0-10.1-8.2-18.3-18.3-18.3c-10.1,0-18.3,8.2-18.3,18.3c0,7.3,4.3,13.6,10.6,16.6c0.1-0.4,0.3-0.9,0.4-1.3  c-5.7-2.7-9.6-8.5-9.6-15.2c0-9.3,7.6-16.9,16.9-16.9c9.3,0,16.9,7.6,16.9,16.9c0,6.7-3.9,12.4-9.5,15.2c0.1,0.4,0.3,0.9,0.4,1.3  C204,327.5,208.3,321.2,208.3,313.9 M212.7,312.8c-0.6-12.1-10.5-21.7-22.7-21.7c-12.6,0-22.8,10.2-22.8,22.8c0,1.8,0.2,3.6,0.6,5.3  h1.3c-0.4-1.7-0.7-3.5-0.7-5.3c0-11.9,9.6-21.5,21.5-21.5c11.8,0,21.5,9.6,21.5,21.5c0,8.7-5.2,16.3-12.8,19.6  c0.1,0.4,0.2,0.8,0.4,1.3c7-3.1,12.2-9.6,13.4-17.4v-4.6H212.7z M170.8,326.2l-0.2-3c2.2,4.6,6,8.3,10.7,10.4  c-0.1,0.4-0.2,0.8-0.4,1.3C176.8,333,173.2,330,170.8,326.2"
   id="path4" />
</svg>
