<svg width="175" height="15" viewBox="0 0 175 15" fill="none" xmlns="http://www.w3.org/2000/svg">
<path d="M11.7393 13.76C11.5234 13.9041 11.1995 14.081 10.7677 14.2907C10.3494 14.4873 9.85018 14.6576 9.26997 14.8018C8.70324 14.9459 8.0758 15.0115 7.38764 14.9984C6.2407 14.9853 5.20845 14.7887 4.2909 14.4086C3.38684 14.0286 2.61772 13.511 1.98353 12.8557C1.34934 12.1874 0.856831 11.4273 0.506002 10.5755C0.168667 9.7106 0 8.79327 0 7.82352C0 6.74893 0.175414 5.76608 0.526243 4.87496C0.877071 3.97073 1.37633 3.18445 2.02401 2.51611C2.68519 1.84777 3.45431 1.33013 4.33138 0.963198C5.22195 0.596266 6.19347 0.412799 7.24596 0.412799C8.15001 0.412799 8.96636 0.530742 9.69501 0.766627C10.4237 1.00251 11.0376 1.27771 11.5369 1.59222L10.6868 3.55793C10.2955 3.29584 9.8097 3.04685 9.22948 2.81096C8.66276 2.56197 8.02857 2.43748 7.32692 2.43748C6.63875 2.43748 5.98432 2.57508 5.36363 2.85028C4.75642 3.11237 4.21669 3.48586 3.74442 3.97073C3.28564 4.4425 2.92132 4.99945 2.65145 5.64159C2.38158 6.27061 2.24665 6.95861 2.24665 7.70558C2.24665 8.46565 2.36809 9.16676 2.61097 9.80889C2.85385 10.451 3.19794 11.008 3.64322 11.4797C4.10199 11.9515 4.64848 12.3184 5.28267 12.5805C5.91686 12.8426 6.63201 12.9737 7.42812 12.9737C8.18375 12.9737 8.84492 12.8623 9.41165 12.6395C9.99186 12.4167 10.4641 12.1612 10.8285 11.8729L11.7393 13.76Z" fill="white"/>
<path d="M17.6557 10.1431L12.2111 0.570056H14.8828L19.113 8.35426L18.4653 8.39358L22.655 0.570056H25.3064L19.8214 10.1431V14.8411H17.6557V10.1431Z" fill="white"/>
<path d="M38.4674 0.570056V14.8411H36.3017V8.68843H28.8534V14.8411H26.6877V0.570056H28.8534V6.68341H36.3017V0.570056H38.4674Z" fill="white"/>
<path d="M45.2708 10.1431L39.8262 0.570056H42.4979L46.7281 8.35426L46.0804 8.39358L50.2701 0.570056H52.9215L47.4365 10.1431V14.8411H45.2708V10.1431Z" fill="white"/>
<path d="M59.532 14.8411V0.570056H63.6205C65.0778 0.570056 66.3192 0.786284 67.3447 1.21874C68.3702 1.6512 69.1933 2.22125 69.814 2.92891C70.4481 3.63656 70.9069 4.42285 71.1903 5.28776C71.4871 6.15267 71.6356 7.02413 71.6356 7.90215C71.6356 8.96363 71.4399 9.92028 71.0486 10.7721C70.6573 11.6239 70.1243 12.3578 69.4496 12.9737C68.775 13.5765 67.9991 14.0417 67.122 14.3693C66.2449 14.6838 65.3139 14.8411 64.3289 14.8411H59.532ZM61.6977 12.8164H63.9241C64.7202 12.8164 65.4488 12.705 66.11 12.4823C66.7847 12.2595 67.3649 11.9319 67.8507 11.4994C68.3499 11.0669 68.7345 10.5362 69.0043 9.90717C69.2742 9.27815 69.4091 8.55739 69.4091 7.74489C69.4091 6.86688 69.254 6.1068 68.9436 5.46467C68.6468 4.80944 68.2487 4.27214 67.7495 3.85279C67.2502 3.42033 66.6902 3.10582 66.0695 2.90925C65.4623 2.69957 64.8416 2.59474 64.2074 2.59474H61.6977V12.8164Z" fill="white"/>
<path d="M71.2883 14.8411L77.7449 0H77.8663L84.3229 14.8411H81.8536L77.1579 3.28274L78.7164 2.28022L73.4135 14.8411H71.2883ZM75.2149 9.49438H80.4368L81.1857 11.3028H74.5672L75.2149 9.49438Z" fill="white"/>
<path d="M93.3945 3.30239C92.8817 3.0403 92.3285 2.81752 91.7348 2.63405C91.1411 2.45058 90.5676 2.35885 90.0144 2.35885C89.2587 2.35885 88.6583 2.52921 88.213 2.86994C87.7677 3.19755 87.5451 3.64967 87.5451 4.22627C87.5451 4.63252 87.6935 4.98635 87.9903 5.28776C88.2872 5.58917 88.6718 5.85126 89.144 6.07404C89.6163 6.29682 90.1156 6.5065 90.6418 6.70307C91.0871 6.86033 91.5256 7.05034 91.9574 7.27312C92.4027 7.4828 92.8007 7.74489 93.1516 8.05941C93.5159 8.37392 93.7993 8.76706 94.0017 9.23883C94.2175 9.6975 94.3255 10.261 94.3255 10.9293C94.3255 11.6894 94.1298 12.3774 93.7385 12.9933C93.3607 13.6093 92.8075 14.1007 92.0788 14.4676C91.3637 14.8214 90.4934 14.9984 89.4679 14.9984C88.8472 14.9984 88.24 14.9328 87.6463 14.8018C87.066 14.6576 86.5128 14.4742 85.9866 14.2514C85.4738 14.0155 85.0083 13.76 84.59 13.4848L85.5615 11.8532C85.8854 12.076 86.2564 12.2922 86.6747 12.5019C87.093 12.6985 87.5248 12.8557 87.9701 12.9737C88.4289 13.0916 88.8607 13.1506 89.2655 13.1506C89.7108 13.1506 90.1493 13.0785 90.5811 12.9344C91.0129 12.7771 91.3704 12.5412 91.6538 12.2267C91.9372 11.8991 92.0788 11.4732 92.0788 10.949C92.0788 10.5034 91.9507 10.13 91.6943 9.82855C91.4514 9.51403 91.1208 9.24539 90.7025 9.02261C90.2977 8.79982 89.8592 8.60325 89.3869 8.43289C88.9281 8.26253 88.4626 8.07251 87.9903 7.86284C87.5181 7.65316 87.0795 7.40417 86.6747 7.11587C86.2699 6.81446 85.9394 6.44753 85.683 6.01507C85.4401 5.56951 85.3187 5.02566 85.3187 4.38353C85.3187 3.62346 85.5008 2.96167 85.8651 2.39817C86.2429 1.82156 86.7624 1.36944 87.4236 1.04183C88.0848 0.714208 88.8472 0.530742 89.7108 0.491428C90.6958 0.491428 91.5526 0.609371 92.2812 0.845256C93.0099 1.08114 93.6576 1.36289 94.2243 1.69051L93.3945 3.30239Z" fill="white"/>
<path d="M108.089 0.570056V14.8411H105.924V8.68843H98.4754V14.8411H96.3097V0.570056H98.4754V6.68341H105.924V0.570056H108.089Z" fill="white"/>
<path d="M114.913 0.570056C116.397 0.570056 117.564 0.864913 118.415 1.45462C119.278 2.04434 119.71 2.94856 119.71 4.1673C119.71 4.95359 119.521 5.62848 119.143 6.19198C118.779 6.75549 118.266 7.1945 117.605 7.50901C116.957 7.81042 116.188 7.98078 115.298 8.02009L114.974 6.89964C116.013 6.92585 116.937 7.10276 117.747 7.43038C118.57 7.74489 119.217 8.19046 119.69 8.76706C120.175 9.33057 120.418 10.0055 120.418 10.7917C120.418 11.5125 120.277 12.135 119.993 12.6592C119.723 13.1703 119.352 13.5896 118.88 13.9172C118.421 14.2317 117.895 14.4676 117.301 14.6249C116.721 14.769 116.114 14.8411 115.48 14.8411H111.007V0.570056H114.913ZM115.298 6.74238C116.053 6.74238 116.606 6.53271 116.957 6.11336C117.308 5.694 117.483 5.19602 117.483 4.61942C117.483 3.91176 117.254 3.40068 116.795 3.08616C116.35 2.75855 115.756 2.59474 115.014 2.59474H113.172V6.74238H115.298ZM115.379 12.8951C115.905 12.8951 116.377 12.823 116.795 12.6788C117.227 12.5216 117.564 12.2922 117.807 11.9908C118.064 11.6763 118.192 11.2832 118.192 10.8114C118.192 10.2872 118.043 9.88097 117.747 9.59266C117.463 9.29125 117.092 9.08158 116.633 8.96363C116.188 8.83259 115.723 8.76706 115.237 8.76706H113.172V12.8951H115.379Z" fill="white"/>
<path d="M121.512 7.72524C121.512 6.74238 121.701 5.81195 122.078 4.93393C122.47 4.05591 123.01 3.27618 123.698 2.59474C124.386 1.91329 125.182 1.38255 126.086 1.00251C126.99 0.60937 127.962 0.412799 129.001 0.412799C130.026 0.412799 130.991 0.60937 131.895 1.00251C132.799 1.38255 133.602 1.91329 134.303 2.59474C135.005 3.27618 135.552 4.05591 135.943 4.93393C136.334 5.81195 136.53 6.74238 136.53 7.72524C136.53 8.7343 136.334 9.67784 135.943 10.5559C135.552 11.4339 135.005 12.2071 134.303 12.8754C133.615 13.5437 132.812 14.0679 131.895 14.448C130.991 14.8149 130.026 14.9984 129.001 14.9984C127.962 14.9984 126.99 14.8149 126.086 14.448C125.182 14.081 124.386 13.5699 123.698 12.9147C123.01 12.2464 122.47 11.4732 122.078 10.5952C121.701 9.70405 121.512 8.74741 121.512 7.72524ZM123.738 7.72524C123.738 8.4591 123.873 9.1471 124.143 9.78923C124.426 10.4183 124.811 10.9752 125.297 11.4601C125.782 11.9319 126.342 12.3053 126.977 12.5805C127.624 12.8426 128.319 12.9737 129.061 12.9737C129.79 12.9737 130.471 12.8426 131.106 12.5805C131.74 12.3053 132.293 11.9319 132.765 11.4601C133.251 10.9752 133.629 10.4183 133.899 9.78923C134.169 9.1471 134.303 8.4591 134.303 7.72524C134.303 6.99137 134.162 6.30993 133.878 5.6809C133.609 5.03877 133.231 4.47526 132.745 3.99039C132.273 3.50551 131.713 3.12548 131.065 2.85028C130.431 2.57508 129.749 2.43748 129.021 2.43748C128.265 2.43748 127.57 2.57508 126.936 2.85028C126.302 3.12548 125.742 3.50551 125.256 3.99039C124.77 4.47526 124.393 5.03877 124.123 5.6809C123.866 6.32303 123.738 7.00448 123.738 7.72524Z" fill="white"/>
<path d="M136.195 14.8411L142.652 0H142.773L149.23 14.8411H146.76L142.065 3.28274L143.623 2.28022L138.32 14.8411H136.195ZM140.122 9.49438H145.344L146.092 11.3028H139.474L140.122 9.49438Z" fill="white"/>
<path d="M154.678 0.570056C155.447 0.570056 156.156 0.674894 156.803 0.884569C157.465 1.08114 158.025 1.36944 158.483 1.74948C158.956 2.12952 159.32 2.60129 159.576 3.16479C159.846 3.71519 159.981 4.35732 159.981 5.09119C159.981 5.65469 159.893 6.21164 159.718 6.76204C159.543 7.31244 159.259 7.81042 158.868 8.25598C158.477 8.70154 157.964 9.06192 157.33 9.33712C156.695 9.59921 155.906 9.73026 154.962 9.73026H152.816V14.8411H150.65V0.570056H154.678ZM154.921 7.72524C155.474 7.72524 155.933 7.64006 156.297 7.46969C156.675 7.29933 156.965 7.08966 157.168 6.84067C157.384 6.57857 157.532 6.30337 157.613 6.01507C157.707 5.71366 157.755 5.42536 157.755 5.15016C157.755 4.88806 157.707 4.61286 157.613 4.32456C157.532 4.03626 157.384 3.76106 157.168 3.49896C156.965 3.23687 156.689 3.02064 156.338 2.85028C155.987 2.67992 155.555 2.59474 155.042 2.59474H152.816V7.72524H154.921ZM157.411 8.94398L161.216 14.8411H158.706L154.84 9.00295L157.411 8.94398Z" fill="white"/>
<path d="M162.896 14.8411V0.570056H166.985C168.442 0.570056 169.684 0.786284 170.709 1.21874C171.735 1.6512 172.558 2.22125 173.178 2.92891C173.813 3.63656 174.271 4.42285 174.555 5.28776C174.852 6.15267 175 7.02413 175 7.90215C175 8.96363 174.804 9.92028 174.413 10.7721C174.022 11.6239 173.489 12.3578 172.814 12.9737C172.139 13.5765 171.364 14.0417 170.486 14.3693C169.609 14.6838 168.678 14.8411 167.693 14.8411H162.896ZM165.062 12.8164H167.289C168.085 12.8164 168.813 12.705 169.474 12.4823C170.149 12.2595 170.729 11.9319 171.215 11.4994C171.714 11.0669 172.099 10.5362 172.369 9.90717C172.639 9.27815 172.774 8.55739 172.774 7.74489C172.774 6.86688 172.618 6.1068 172.308 5.46467C172.011 4.80944 171.613 4.27214 171.114 3.85279C170.615 3.42033 170.055 3.10582 169.434 2.90925C168.827 2.69957 168.206 2.59474 167.572 2.59474H165.062V12.8164Z" fill="white"/>
</svg>
